<?xml version="1.0" encoding="UTF-8"?>
<svg width="1200pt" height="1200pt" version="1.1" viewBox="0 0 1200 1200" xmlns="http://www.w3.org/2000/svg">
 <path d="m599.95 248.72c-194.48 0-352.45 157.36-352.45 351.19 0 193.82 157.97 351.32 352.45 351.32s352.6-157.5 352.6-351.32c0-193.82-158.11-351.19-352.6-351.19zm0 34.312c176.02 0 318.28 141.71 318.28 316.92 0 175.22-142.26 317.02-318.28 317.02s-318.19-141.84-318.19-317.02c0-175.22 142.18-316.92 318.19-316.92zm-497.68 113.86c-7.0781 0.046875-13.406 4.5-15.891 11.156-3.3281 8.8594 1.1719 18.703 9.9844 22.031l81.75 30.516c8.8594 3.2812 18.656-1.1719 22.031-9.9844 1.5938-4.2656 1.4531-9-0.42188-13.172-1.875-4.125-5.2969-7.3594-9.5625-9l-81.75-30.516-0.046875 0.046875c-1.9219-0.75-3.9844-1.125-6.0938-1.0781zm995.44 0c-2.1094-0.046875-4.1719 0.32812-6.0938 1.0781l-81.75 30.516v-0.046875c-4.2656 1.5938-7.7344 4.8281-9.6094 9s-2.0156 8.9062-0.42188 13.172c3.3281 8.8125 13.219 13.312 22.031 9.9844l81.656-30.516c8.8594-3.2812 13.406-13.125 10.125-22.031-2.4844-6.6562-8.8125-11.109-15.938-11.156zm-367.92 34.031c-10.5 0-21.047 3.9375-29.016 11.859l-144.89 143.68-56.719-56.203c-15.938-15.797-42.047-15.797-57.984 0l-43.547 43.172c-15.938 15.797-15.938 42.047 0 57.844l68.859 68.25 56.578 56.203c18.047 17.859 47.625 17.859 65.672 0l56.578-56.203 156.89-155.53c15.938-15.797 15.938-42.188 0-57.984l-43.547-43.172c-7.9688-7.875-18.469-11.859-28.969-11.859zm-0.046875 34.219c1.7344 0 3.4688 0.65625 4.875 2.0625l43.547 43.172c2.7656 2.7656 2.7656 6.5156 0 9.2344l-156.89 155.53-56.578 56.062c-4.875 4.8281-12.422 4.8281-17.297 0l-56.719-56.062-68.719-68.203c-2.7656-2.7656-2.7656-6.5156 0-9.2344l43.547-43.172c2.7656-2.7656 6.8906-2.7656 9.6562 0l68.859 68.203-0.14062-0.046875c6.7031 6.6562 17.484 6.6562 24.141 0l156.79-155.53c1.4062-1.3594 3.1406-2.0625 4.875-2.0625zm-661.22 117.75v-0.046875c-9.4219 0.046875-17.062 7.6406-17.109 17.109 0 4.5469 1.7812 8.9062 5.0156 12.141 3.1875 3.2344 7.5469 5.0625 12.094 5.0625h87.328c4.5469-0.046875 8.9062-1.875 12.094-5.0625 3.2344-3.2344 5.0156-7.5938 5.0156-12.141-0.046876-9.4219-7.6875-17.062-17.109-17.109zm975.61 0 0.046875-0.046875c-9.4219 0.046875-17.062 7.6875-17.109 17.109 0 4.5469 1.7812 8.9062 4.9688 12.141 3.2344 3.1875 7.5938 5.0156 12.141 5.0625h87.328c4.5469-0.046875 8.8594-1.875 12.094-5.0625 3.1875-3.2344 4.9688-7.5938 4.9688-12.141-0.046875-9.4219-7.6875-17.062-17.062-17.109zm-859.92 155.44c-2.1094 0-4.125 0.32812-6.0938 1.0781l-81.75 30.516c-8.8125 3.3281-13.266 13.172-9.9844 21.984 3.2812 8.8594 13.125 13.406 21.984 10.125l81.75-30.656 0.046875 0.046875c8.8125-3.375 13.266-13.172 9.9844-22.031-2.5312-6.6094-8.8594-11.016-15.938-11.062zm831.66 0h-0.046875c-7.0781 0.046875-13.453 4.4531-15.984 11.062-3.2812 8.8594 1.2188 18.703 10.031 22.031l81.75 30.656v-0.046875c4.2656 1.5938 8.9531 1.4062 13.125-0.46875 4.125-1.9219 7.3125-5.3906 8.9062-9.6562 3.2812-8.8594-1.2656-18.703-10.125-21.984l-81.656-30.516c-1.9219-0.70312-3.9844-1.0781-6.0469-1.0781z"
	 fill="#fff"
	 stroke="#fff"
	 stroke-width="36"
	 stroke-linecap="round"
	 stroke-linejoin="round"
	 paint-order="stroke fill"/>
</svg>
