<?xml version="1.0" encoding="UTF-8"?>
<svg width="1200pt" height="1200pt" version="1.1" viewBox="0 0 1200 1200" xmlns="http://www.w3.org/2000/svg">
 <path d="m782.94 1134.4h-628.38c-49.035 0-88.934-39.898-88.934-88.934v-628.38c0-49.035 39.898-88.934 88.934-88.934h482.94c15.527 0 28.125 12.598 28.125 28.125s-12.598 28.125-28.125 28.125h-482.94c-18.027 0-32.684 14.668-32.684 32.684v628.38c0 18.02 14.656 32.684 32.684 32.684h628.38c18.02 0 32.684-14.668 32.684-32.684v-370.44c0-15.527 12.598-28.125 28.125-28.125s28.125 12.598 28.125 28.125v370.44c0 49.035-39.898 88.934-88.934 88.934z" fill="#fff"/>
 <path d="m641.04 992.49c-12.047 0-23.199-7.8008-26.891-19.941l-133.04-437.13c-1.668-5.4766-6.6289-9.1562-12.352-9.1562s-10.684 3.6797-12.352 9.1562l-133.04 437.13c-4.5117 14.867-20.215 23.293-35.094 18.715-14.867-4.5234-23.246-20.234-18.723-35.082l133.04-437.13c8.918-29.332 35.504-49.035 66.164-49.035s57.246 19.703 66.164 49.035l133.04 437.13c4.5234 14.852-3.8438 30.559-18.715 35.082-2.7266 0.84375-5.4766 1.2266-8.2031 1.2266z" fill="#fff"/>
 <path d="m661.32 830.33h-385.14c-15.535 0-28.125-12.598-28.125-28.125s12.59-28.125 28.125-28.125h385.14c15.527 0 28.125 12.598 28.125 28.125s-12.598 28.125-28.125 28.125z" fill="#fff"/>
 <path d="m437.87 290.62c-15.535 0-28.125-12.598-28.125-28.125 0-73.902 60.113-134.02 134-134.02 15.535 0 28.125 12.598 28.125 28.125s-12.59 28.125-28.125 28.125c-42.875 0-77.754 34.883-77.754 77.766 0 15.527-12.59 28.125-28.125 28.125z" fill="#fff"/>
 <path d="m937.5 790.27c-15.527 0-28.125-12.598-28.125-28.125s12.598-28.125 28.125-28.125c42.883 0 77.766-34.883 77.766-77.766 0-15.527 12.598-28.125 28.125-28.125s28.125 12.598 28.125 28.125c0 73.902-60.113 134.02-134.02 134.02z" fill="#fff"/>
 <path d="m1050 590.62h-356.25c-46.527 0-84.375-37.848-84.375-84.375v-356.25c0-46.527 37.848-84.375 84.375-84.375h356.25c46.527 0 84.375 37.848 84.375 84.375v356.25c0 46.527-37.848 84.375-84.375 84.375zm-356.25-468.75c-15.508 0-28.125 12.617-28.125 28.125v356.25c0 15.508 12.617 28.125 28.125 28.125h356.25c15.508 0 28.125-12.617 28.125-28.125v-356.25c0-15.508-12.617-28.125-28.125-28.125z" fill="#fff"/>
 <path d="m993.75 262.5h-243.75c-15.527 0-28.125-12.598-28.125-28.125s12.598-28.125 28.125-28.125h243.75c15.527 0 28.125 12.598 28.125 28.125s-12.598 28.125-28.125 28.125z" fill="#fff"/>
 <path d="m768.53 506.25c-11.207 0-21.809-6.7578-26.164-17.816-5.6953-14.445 1.4102-30.781 15.855-36.473 182.25-71.797 170.43-208.74 169.85-214.54-1.5742-15.379 9.5586-29.242 24.938-30.91 15.051-1.668 29.188 9.2852 30.965 24.645 0.20312 1.832 18.641 184.99-205.13 273.14-3.3867 1.3359-6.8672 1.9609-10.309 1.9609z" fill="#fff"/>
 <path d="m975.22 506.25c-3.4414 0-6.9219-0.62109-10.309-1.9609-114.28-45.027-164.03-114.62-185.65-165.09-6.1172-14.281 0.49609-30.816 14.777-36.934 14.227-6.0781 30.797 0.51172 36.934 14.777 25.305 59.09 77.309 104.48 154.56 134.91 14.445 5.6953 21.551 22.027 15.855 36.473-4.3594 11.059-14.961 17.816-26.164 17.816z" fill="#fff"/>
 <path d="m871.88 262.5c-15.527 0-28.125-12.598-28.125-28.125v-56.25c0-15.527 12.598-28.125 28.125-28.125s28.125 12.598 28.125 28.125v56.25c0 15.527-12.598 28.125-28.125 28.125z" fill="#fff"/>
</svg>
