<?xml version="1.0" encoding="UTF-8"?>
<svg width="1200pt" height="1200pt" version="1.1" viewBox="0 0 1200 1200" xmlns="http://www.w3.org/2000/svg">
 <path d="m1063.9 342.38 55.5-55.5c34.242-34.574-17.734-87.969-52.875-53.246-124.49 124.58-348.57 348.5-477.75 477.75 0 0.003906-147.66-128.02-147.66-128.02-15.398-13.348-17.273-36.57-4.2148-52.219 13.406-16.066 37.266-18.109 53.078-4.4102 40.395 34.988 95.051 82.27 95.051 82.27l228-228c-188.17-187.31-520.52-49.266-518.62 219-0.003906 168.37 137.25 305.62 305.62 305.62 200.5 3.3242 353.12-202 292.87-392.25 0.003906 0.003906 58.879-58.871 58.879-58.871 18.898 45.594 28.848 95.293 28.875 145.5 0 209.62-171 380.62-380.62 380.62-504.93-21.504-504.9-739.77 0.003906-761.25 103.5 0.003906 197.25 41.625 265.88 108.75 26.379-26.352 79.738-79.762 106.12-106.12-328.44-327.74-903.74-91.211-902.63 378.01-0.003906 292.49 238.12 530.62 530.62 530.62 362.3 7.1641 629.65-379.84 497.25-715.5-9.375-25.125-20.625-49.5-33.375-72.75z" fill="#fff"/>
</svg>
