<?xml version="1.0" encoding="UTF-8"?>
<svg width="1200pt" height="1200pt" version="1.1" viewBox="0 0 1200 1200" xmlns="http://www.w3.org/2000/svg">
 <path d="m600 99.984c275.95 0 500.02 224.06 500.02 500.02s-224.06 500.02-500.02 500.02-500.02-224.06-500.02-500.02 224.06-500.02 500.02-500.02zm-50.016 550.03v150c0 27.609 22.406 49.969 50.016 49.969s50.016-22.406 50.016-49.969v-150h150c27.609 0 49.969-22.406 49.969-50.016s-22.406-50.016-49.969-50.016h-150v-150c0-27.609-22.406-49.969-50.016-49.969s-50.016 22.406-50.016 49.969v150h-150c-27.609 0-49.969 22.406-49.969 50.016s22.406 50.016 49.969 50.016z" fill="#fff" fill-rule="evenodd"/>
</svg>
