<?xml version="1.0" encoding="UTF-8"?>
<svg width="1200pt" height="1200pt" version="1.1" viewBox="0 0 1200 1200" xmlns="http://www.w3.org/2000/svg" fill="#fff">
 <path d="m1141.9 929.03h-6.8086c39.531-31.957 64.875-80.805 64.875-135.48 0-96.051-78.145-174.2-174.2-174.2-67.359 0-125.87 38.457-154.84 94.547-17.965-34.781-47.289-62.754-83.051-79 17.855-15.219 30.219-36.844 33.316-61.605l32.953-263.62h-61.734c-8.9922-80.941-73.641-145.32-154.71-153.86-9.2109-87.445-83.375-155.82-173.22-155.82s-164 68.371-173.21 155.82c-81.074 8.5391-145.72 72.922-154.71 153.86h-61.734l32.953 263.62c2.1562 17.242 8.8164 32.957 18.68 46.062h-51.633l32.953 263.62c2.1562 17.242 8.8164 32.957 18.68 46.062l-68.418-0.003906c-32.02 0-58.066 26.047-58.066 58.066v38.711c0 32.02 26.047 58.066 58.066 58.066h19.355v58.066c0 32.016 26.051 58.066 58.066 58.066h77.418c32.016 0 58.066-26.051 58.066-58.066v-58.066h232.26v58.066c0 32.016 26.051 58.066 58.066 58.066h77.418c32.016 0 58.066-26.051 58.066-58.066v-58.066h232.26v58.066c0 32.016 26.051 58.066 58.066 58.066h77.418c32.016 0 58.066-26.051 58.066-58.066v-58.066h19.355c32.02 0 58.066-26.047 58.066-58.066v-38.711c-0.011719-32.02-26.059-58.066-58.078-58.066zm-116.13-270.96c74.703 0 135.48 60.777 135.48 135.48 0 74.703-60.777 135.48-135.48 135.48-74.703 0-135.48-60.777-135.48-135.48 0.003907-74.707 60.781-135.48 135.48-135.48zm-109.32 270.96h-91.039c18.789-15.188 34.344-34.199 45.52-55.836 11.176 21.641 26.73 40.648 45.52 55.836zm-64.875-135.48c0 74.703-60.777 135.48-135.48 135.48-74.703 0-135.48-60.777-135.48-135.48 0-74.703 60.777-135.48 135.48-135.48 74.703 0.003906 135.48 60.781 135.48 135.48zm-483.87-19.352v-38.711l184.18-0.015625c-4.375 12.332-7.4023 25.301-8.8906 38.723zm385.69-464.52h-268.16c9.4219-65.566 65.945-116.13 134.08-116.13 68.129 0 124.66 50.562 134.08 116.13zm-288.92-270.96c68.566 0 125.36 51.215 134.24 117.39-58.555 6.9336-108.27 43.004-134.24 93.285-25.973-50.281-75.688-86.352-134.24-93.285 8.8789-66.18 65.676-117.39 134.24-117.39zm-154.84 154.84c68.133 0 124.66 50.562 134.08 116.13h-268.16c9.4219-65.566 65.945-116.13 134.08-116.13zm-163.46 374.95-27.512-220.11h691.63l-27.512 220.11c-3.625 28.996-28.395 50.863-57.617 50.863h-521.38c-29.223 0-53.988-21.867-57.617-50.863zm0 309.68-27.512-220.11h488.11c-14.012 11.328-26.227 24.773-36.176 39.855-3.0234-0.75-6.1562-1.1445-9.3477-1.1445h-193.55c-21.344 0-38.711 17.367-38.711 38.711v38.711c0 21.344 17.367 38.711 38.711 38.711h175.29c5.1953 46.77 28.973 87.996 63.773 116.13l-402.98-0.007812c-29.223 0-53.992-21.863-57.617-50.859zm86.047 263.76c0 10.672-8.6836 19.355-19.355 19.355h-77.418c-10.672 0-19.355-8.6836-19.355-19.355v-58.066h116.13zm425.81 0c0 10.672-8.6836 19.355-19.355 19.355h-77.418c-10.672 0-19.355-8.6836-19.355-19.355v-58.066h116.13zm425.8 0c0 10.672-8.6836 19.355-19.355 19.355h-77.418c-10.672 0-19.355-8.6836-19.355-19.355v-58.066h116.13zm77.418-116.13c0 10.672-8.6836 19.355-19.355 19.355h-1083.9c-10.672 0-19.355-8.6836-19.355-19.355v-38.711c0-10.672 8.6836-19.355 19.355-19.355h145.77l512.3 0.003907h425.8c10.672 0 19.355 8.6836 19.355 19.355z"/>
 <path d="m561.29 387.1h-193.55c-21.344 0-38.711 17.367-38.711 38.711v38.711c0 21.344 17.367 38.711 38.711 38.711h193.55c21.344 0 38.711-17.367 38.711-38.711v-38.711c0-21.344-17.367-38.711-38.711-38.711zm0 77.418h-193.55v-38.711h193.55l0.023438 38.711h-0.023438z"/>
 <path d="m519.26 93.453-27.371-27.371c-7.3086 7.3125-17.031 11.336-27.371 11.336s-20.062-4.0273-27.371-11.336l-27.371 27.371c15.094 15.094 34.918 22.641 54.742 22.641s39.652-7.5469 54.742-22.641z"/>
 <path d="m309.68 232.26c-10.34 0-20.062-4.0273-27.371-11.336l-27.371 27.371c15.094 15.094 34.918 22.641 54.742 22.641s39.652-7.5469 54.742-22.641l-27.371-27.371c-7.3086 7.3086-17.027 11.336-27.371 11.336z"/>
 <path d="m591.98 220.92-27.371 27.371c15.094 15.094 34.918 22.641 54.742 22.641 19.824 0 39.652-7.5469 54.742-22.641l-27.371-27.371c-7.3047 7.3086-17.027 11.336-27.367 11.336-10.34 0-20.062-4.0273-27.375-11.336z"/>
 <path d="m1080.6 712.81-27.371-27.371c-7.3125 7.3125-17.031 11.336-27.375 11.336-10.34 0-20.062-4.0273-27.371-11.336l-27.371 27.371c15.094 15.094 34.918 22.641 54.742 22.641 19.824 0 39.652-7.5469 54.746-22.641z"/>
 <path d="m688.76 685.44-27.371 27.371c15.094 15.094 34.918 22.641 54.742 22.641 19.824 0 39.652-7.5469 54.742-22.641l-27.371-27.371c-7.3086 7.3125-17.031 11.336-27.371 11.336s-20.062-4.0234-27.371-11.336z"/>
</svg>
