<?xml version="1.0" encoding="UTF-8"?>
<svg width="1200pt" height="1200pt" version="1.1" viewBox="0 0 1200 1200" xmlns="http://www.w3.org/2000/svg" fill="#fff">
 <path d="m619.26 557.48c1.5938 0.42188 3.2344 0.65625 4.8281 0.65625 6.8906 0 13.453-3.8438 16.688-10.219 27.703-54.328 67.172-108.42 117.23-160.74 7.1719-7.4531 6.8906-19.359-0.5625-26.531-7.5-7.125-19.312-6.8906-26.484 0.5625-32.344 33.797-60.516 68.391-84.234 103.36l4.4531-86.484c0.51562-10.359-7.4062-19.172-17.766-19.688-10.172-0.5625-19.172 7.4531-19.688 17.766l-8.3438 162.24c-0.46875 8.8594 5.3438 16.781 13.875 19.078z"/>
 <path d="m564.79 370.55c-10.359-1.0781-19.406 6.7031-20.344 17.016l-15.141 170.63-16.734 45.469-13.688-43.688c-3.0938-9.8438-13.594-15.328-23.484-12.281-9.8906 3.0938-15.375 13.641-12.281 23.531l30.188 96.188c2.3438 7.5938 9.3281 12.844 17.391 13.078h0.46875c7.8281 0 14.859-4.875 17.578-12.281l36.609-99.422c0.5625-1.5469 0.9375-3.1875 1.0781-4.8281l15.375-173.11c0.9375-10.266-6.7031-19.359-17.016-20.297z"/>
 <path d="m629.44 699.74c3.4219 2.8594 7.6875 4.3125 11.953 4.3125 3.0469 0 6.0938-0.75 8.9062-2.25 44.25-23.953 85.828-41.812 123.61-53.203 9.9375-3 15.516-13.453 12.562-23.344-3-9.9375-13.5-15.469-23.344-12.562-27.797 8.3906-57.375 19.969-88.312 34.641 30.75-78 75.375-149.48 135.61-217.31 6.8906-7.7344 6.1875-19.594-1.5469-26.484-7.7344-6.8438-19.594-6.1875-26.484 1.5938-74.859 84.281-126.84 174.1-158.86 274.5-2.3438 7.2656 0 15.234 5.9062 20.109z"/>
 <path d="m862.08 1018.8h-234.14c-22.266-89.062-19.594-145.82 10.969-220.92 1.4531 1.4531 3 2.8594 4.9688 3.8438 2.4844 1.2188 44.719 21.703 102.19 21.656 24.328 0 51.375-3.6562 79.266-14.016 29.016-14.109 48.469-35.391 57.844-63.188 13.781-40.969 1.3125-85.359-7.3594-108.14 16.922-13.781 41.531-43.172 43.734-98.625 2.3438-58.359-24.891-90.422-44.953-105.98 21.328-33.375 36.938-89.578-8.2031-142.78-51.938-61.312-112.97-52.828-151.64-33.047-6.1406-13.312-15.844-25.5-28.312-34.875-26.203-19.828-62.016-25.875-100.78-16.922-57.984 13.312-78.375 65.531-82.781 105.23-29.906-5.625-80.672-6.375-118.59 38.203-54.844 64.547-38.016 125.26-13.078 160.64-22.172 13.172-53.344 38.719-65.344 82.547-9.6562 35.203-4.2188 72.234 15.422 104.3 20.719 33.844 54.938 57.891 93.844 65.953 18.141 3.75 34.688 4.9219 46.734 5.2031-27.656 73.969-22.969 169.13-16.594 250.92h-192.56c-10.359 0-18.75 8.3906-18.75 18.75s8.3906 18.75 18.75 18.75h609.47c10.359 0 18.75-8.3906 18.75-18.75-0.09375-10.359-8.4844-18.75-18.844-18.75zm-359.95-251.44c2.1094-4.5469 2.2969-9.75 0.5625-14.438l-57.141-153.32c-3.6094-9.75-14.391-14.578-24.094-11.062-9.7031 3.6094-14.625 14.391-11.016 24.094l43.734 117.38c-9.0469-0.51562-19.875-1.6875-31.5-4.0781-28.828-5.9531-54.141-23.766-69.469-48.797-14.156-23.109-18.141-49.688-11.203-74.812 13.781-50.203 64.922-68.391 65.344-68.531 6.2812-2.1094 10.969-7.4531 12.328-13.922 1.3594-6.5156-0.84375-13.266-5.7188-17.766-6.375-5.8125-60.422-58.781-1.0781-128.63 38.344-45.094 98.438-21.75 100.97-20.766 6 2.4375 12.797 1.6406 18.047-2.1562 5.25-3.75 8.1562-9.9844 7.7344-16.453-0.046875-0.79688-4.5469-78.234 54.422-91.734 35.625-8.1562 57.609 1.125 69.797 10.312 12.094 9.1406 20.016 22.828 20.719 35.672 0.375 7.0781 4.6875 13.312 11.156 16.172s14.062 1.8281 19.5-2.6719c6.7031-5.5312 67.266-52.078 122.53 13.125 45.656 53.859 0.9375 105.09-4.2656 110.67-4.2188 4.4531-5.9062 10.734-4.6406 16.734s5.4844 11.062 11.109 13.453c1.8281 0.75 44.578 19.641 42.094 82.125-2.3438 58.781-35.953 75.422-37.125 75.984-4.7344 2.0625-8.3906 6-10.125 10.828-1.7344 4.875-1.4062 10.219 0.89062 14.812 0.28125 0.51562 26.109 52.734 11.859 94.828-6.1406 18.141-18.797 31.641-36.938 40.594-58.266 21.516-114.23 6.5625-138.05-1.9688 40.688-27.188 81.797-47.062 122.72-59.062 9.9375-2.9062 15.609-13.312 12.703-23.25s-13.406-15.609-23.25-12.703c-57.844 16.969-115.64 47.859-171.98 92.016-2.7188 2.0156-4.875 4.6875-6.1406 7.8281-34.734 82.734-39.328 147.14-17.062 241.03h-106.69c-6.6562-84.141-12.234-183.52 19.266-251.53z"/>
 <path d="m165.61 309.74h154.55c45.188 0 81.938-36.75 81.938-81.938v-13.547c0-38.953-31.688-70.641-70.641-70.641h-12.094c-29.109 0-52.828 23.672-52.828 52.828 0 29.109 23.672 52.828 53.391 52.828 10.359 0 18.469-8.3906 18.469-18.75 0-10.359-8.6719-18.75-19.031-18.75-8.4375 0-15.328-6.8438-15.328-15.328 0-8.4375 6.8438-15.328 15.328-15.328h12.094c18.281 0 33.141 14.859 33.141 33.141v13.547c0 24.516-19.922 44.438-44.438 44.438h-154.55c-10.359 0-18.75 8.3906-18.75 18.75 0 10.359 8.3906 18.75 18.75 18.75z"/>
 <path d="m982.13 749.53h-12.094c-29.109 0-52.828 23.672-52.828 52.828 0 29.109 23.672 52.828 53.391 52.828 10.359 0 18.469-8.3906 18.469-18.75s-8.6719-18.75-19.031-18.75c-8.4375 0-15.328-6.8438-15.328-15.328 0-8.4375 6.8438-15.328 15.328-15.328h12.094c18.281 0 33.141 14.859 33.141 33.141v13.547c0 24.516-19.922 44.438-44.438 44.438l-214.4-0.046875c-10.359 0-18.75 8.3906-18.75 18.75s8.3906 18.75 18.75 18.75h214.4c45.188 0 81.938-36.75 81.938-81.938v-13.547c0-38.906-31.688-70.594-70.641-70.594z"/>
 <path d="m922.03 332.16c0.60938 0.09375 14.719 2.4375 33.328 2.4375 21.703 0 40.594-3.0938 56.203-9.2344 45.234-17.812 43.969-83.391 43.688-90.797-0.375-10.078-8.6719-18-18.75-18-37.969 0-113.86 19.453-129.66 93.141-1.0781 5.0156-0.046875 10.219 2.8125 14.484 2.8594 4.2188 7.3125 7.0781 12.375 7.9688zm94.266-75.938c-2.3906 14.484-7.8281 30.047-18.469 34.219-11.016 4.3594-25.688 6.6094-42.469 6.6094-1.4531 0-2.8594 0-4.2188-0.046875 15.188-27.047 45.094-37.078 65.156-40.781z"/>
 <path d="m932.9 383.86c-9.0938 4.3594-13.125 15.141-9.0938 24.422 0.75 1.6875 18.75 42.375 55.266 64.5 9.6094 5.8594 20.859 8.8125 33.422 8.8125 33 0 65.109-20.438 68.672-22.781 4.4062-2.9062 7.4062-7.5 8.25-12.703s-0.5625-10.5-3.7969-14.625c-1.875-2.3438-46.688-57.984-108-57.984-15.328 0.046875-30.375 3.5156-44.719 10.359zm106.55 54.234c-13.406 5.25-31.406 8.4375-40.969 2.6719-12.844-7.8281-22.828-19.359-29.578-29.109 27.703-3.8438 54.469 12.656 70.547 26.438z"/>
 <path d="m281.95 512.72c0-10.359-8.3906-18.75-18.75-18.75h-134.11c-10.359 0-18.75 8.3906-18.75 18.75s8.3906 18.75 18.75 18.75h134.11c10.359 0 18.75-8.3906 18.75-18.75z"/>
 <path d="m358.36 832.6c0-10.359-8.3906-18.75-18.75-18.75h-174c-10.359 0-18.75 8.3906-18.75 18.75s8.3906 18.75 18.75 18.75h174c10.359 0 18.75-8.3906 18.75-18.75z"/>
 <path d="m1070.9 617.16h-129.89c-10.359 0-18.75 8.3906-18.75 18.75s8.3906 18.75 18.75 18.75h129.89c10.359 0 18.75-8.3906 18.75-18.75s-8.3906-18.75-18.75-18.75z"/>
</svg>
