<?xml version="1.0" encoding="UTF-8"?>
<svg width="1200pt" height="1200pt" version="1.1" viewBox="0 0 1200 1200" xmlns="http://www.w3.org/2000/svg" fill="#fff">
 <path d="m1102.7 113.51h-518.92v-32.43h-32.434v32.434h-32.434v-32.434h-32.434v32.434h-32.434l0.003907-32.434h-32.434v32.434h-32.434v-32.434h-32.434v32.434h-32.434l0.003907-32.434h-32.434v32.434h-129.73c-44.707 0-81.082 36.371-81.082 81.082 0 44.707 36.371 81.082 81.082 81.082h81.082c5.6289 0 10.832-2.918 13.801-7.6875 2.9688-4.7852 3.2266-10.75 0.71484-15.777l-20.711-41.402h54.844v280.36c-122.93 46.148-210.81 164.56-210.81 303.42 0 178.83 145.49 324.32 324.32 324.32s324.32-145.49 324.32-324.32-145.49-324.32-324.32-324.32c-28.039 0-55.117 3.957-81.082 10.672v-270.13h32.434v32.434h32.434v-32.434h32.434v32.434h32.434v-32.434h32.434v32.434h32.434v-32.434h32.434v32.434h32.434v-32.434h32.434v-32.434h-32.434l-0.007813-32.434h502.7v32.434h-372.98v32.434h389.19c8.9688 0 16.215-7.2656 16.215-16.215l0.003907-64.867c0-8.9531-7.2461-16.219-16.215-16.219zm-891.89 658.15-78.68-78.68c4.5742-12.242 9.6992-24.211 15.812-35.629l88.586 88.59zm-22.93 22.93-25.719 25.719-47.547-47.547c1.1367-15.227 3.4219-30.113 6.8125-44.629zm-48.648 48.648-17.789 17.789c-3.2266-13.766-5.5117-27.859-6.6992-42.293zm152.66-106.8v51.438l-143.95 143.95c-6.1133-11.418-11.238-23.383-15.812-35.629zm0-78.289-80.773-80.773c9.0977-8.1406 18.551-15.859 28.621-22.816l52.152 52.152zm0 324.32-52.152 52.152c-10.055-6.9727-19.523-14.676-28.621-22.816l80.773-80.773zm0 45.859v35.172c-8.125-3.4375-16.004-7.3125-23.723-11.449zm0-467.48-23.723-23.723c7.7188-4.1367 15.617-8.0117 23.723-11.449zm-103.7 39.453 96.992 96.988-25.719 25.719-94.086-94.086c6.9531-10.07 14.672-19.539 22.812-28.621zm-22.816 359.95 126.52-126.52v51.438l-103.7 103.7c-8.1406-9.082-15.859-18.555-22.816-28.625zm483.28-94.086 30.031 30.031c-4.5742 12.242-9.6992 24.211-15.812 35.629l-39.938-39.941zm22.93-22.93 24.488-24.488c-1.1836 14.434-3.4688 28.523-6.6992 42.293zm24.617-70.477-177.28 177.28v-51.438l170.45-170.45c3.4062 14.496 5.6914 29.383 6.8281 44.609zm-177.28 255.57 23.723 23.723c-7.7188 4.1367-15.617 8.0117-23.723 11.449zm6.7148-39.148 25.719-25.719 48.34 48.34c-9.0977 8.1406-18.551 15.859-28.621 22.816zm-6.7148-136.44v-51.438l143.95-143.95c6.1133 11.418 11.238 23.383 15.812 35.629zm0-246.03 52.152-52.152c10.055 6.9727 19.523 14.676 28.621 22.816l-80.773 80.773zm0-45.859v-35.172c8.125 3.4375 16.004 7.3125 23.723 11.449zm-32.43 513.94c-10.574 3.0664-21.406 5.4336-32.434 7.2969v-574.99c11.027 1.8633 21.859 4.2344 32.434 7.2969zm136.13-85.91-48.34-48.344 25.719-25.719 45.438 45.438c-6.957 10.07-14.676 19.543-22.816 28.625zm22.816-359.95-126.52 126.52v-51.438l103.7-103.7c8.1406 9.082 15.859 18.551 22.816 28.621zm-223.82-125.4v582.14c-5.3984 0.29297-10.734 0.8125-16.215 0.8125s-10.816-0.51953-16.215-0.82812l-0.003906-582.13c5.4023-0.30859 10.738-0.82812 16.219-0.82812s10.816 0.51953 16.215 0.82812zm-64.863 3.5664v575c-11.027-1.8633-21.859-4.2344-32.434-7.2969v-560.4c10.574-3.0664 21.406-5.4336 32.434-7.2969zm-210.81-328.72v32.434h54.844l16.215 32.434-54.84-0.003906c-26.82 0-48.648-21.828-48.648-48.648s21.828-48.648 48.648-48.648h129.73v32.434zm178.38 0v-32.434h32.434v32.434zm64.863 0v-32.434h32.434v32.434zm64.867 0v-32.434h32.434v32.434zm97.297 0h-32.434v-32.434h32.434z"/>
 <path d="m648.65 178.38h32.434v32.434h-32.434z"/>
</svg>
