<?xml version="1.0" encoding="UTF-8"?>
<svg width="1200pt" height="1200pt" version="1.1" viewBox="0 0 1200 1200" xmlns="http://www.w3.org/2000/svg">
 <path d="m69.691 587.31c0 252.46 205.62 459.92 459.92 459.92 182.54 0 347.08-108.46 420.46-273.92l86.078 22.152c34.383 8.7695 58.383 39.691 58.383 75.23 0 36.922-23.539 70.152-58.383 82.383l-322.85 113.77c-24.691 8.7695-41.309 32.078-41.309 58.383 0 26.078 16.617 49.617 41.309 58.383 19.617 6.9219 20.309 7.3828 24.23 7.3828h193.85c9.9219 0 18-8.0781 18-18 0-9.9219-8.0781-18-18-18h-190.85l-15.461-5.5391c-10.383-3.6914-17.309-13.617-17.309-24.461 0-10.848 6.9219-20.77 17.309-24.461l322.85-113.77c49.152-17.309 82.152-63.922 82.152-116.08 0-51.691-35.078-96.922-85.152-109.85l-81.691-21c14.309-40.617 26.078-96.23 26.078-152.31 0-252-205.15-459.92-459.92-459.92-82.383 0-160.15 21.922-227.54 60.461l-86.309-86.758c17.078-27.691 13.152-58.152-5.0781-76.152-22.844-22.848-63.23-21.234-90.461 5.9961-27.691 27.691-28.617 67.848-6 90.461 17.77 17.77 48.23 22.152 76.152 5.0781l80.77 80.77c-123.46 84-201.23 225-201.23 379.85zm69.691-491.08c-10.152-10.152-5.0742-28.848 6-39.691 10.617-10.848 29.539-16.383 39.691-6 9.9219 9.9219 5.0781 28.617-6 39.691-10.613 10.617-29.305 16.387-39.691 6zm395.54 460.85c-12.922-3-26.078-5.7695-39-9-37.617-120.69-59.309-217.15-69.922-311.54-1.1523-9.9219-10.152-16.848-19.848-15.691-9.9219 1.1523-16.848 9.9219-15.691 19.848 10.152 89.77 30.922 184.85 64.617 297-14.539-3.9219-29.309-8.3086-43.848-12.461-29.078-109.62-50.77-219.92-62.77-321 34.383-16.383 71.309-28.152 110.08-34.617 14.77 121.38 41.77 238.85 86.078 376.38-3.2344 3.4609-6.4648 7.1523-9.6953 11.078zm-220.15-335.31c11.539 92.078 30.922 191.31 56.309 290.31-11.309-3.6914-22.617-7.3828-33.691-11.309-41.078-156.69-46.383-249.46-49.848-261.46 8.7695-6.2305 18-12 27.23-17.539zm192.92 365.54c-8.5391 9.4609-17.309 18.691-26.078 27.922-217.15-50.078-351.92-116.08-366-120 3.2305-14.77 7.1523-29.078 12-43.152 121.62 59.074 247.62 104.3 380.08 135.23zm-96.691 97.383c-82.617-21-157.15-47.078-248.31-87-9-3.9219-19.617 0.23047-23.539 9.2305s0.23047 19.617 9.2305 23.539c84.691 36.922 155.31 62.309 231 82.848-12.23 10.848-24.461 21.461-36.922 31.848-78.922-22.848-156.23-50.539-230.08-82.383-8.3086-46.383-8.7695-89.078-3-131.77 108.46 47.078 223.62 85.152 342.92 114-13.613 13.613-27.227 26.766-41.305 39.688zm-250.85 110.31c29.078 8.7695 58.152 16.848 87.461 24.461-15.922 11.539-31.848 22.848-48 33.691-14.766-18.23-27.922-37.613-39.461-58.152zm124.39-3c-48.922-11.77-98.078-25.617-145.85-40.848-6.2305-14.77-11.539-29.77-15.922-45.461 60.461 25.152 123 47.539 186.69 66.691-8.5391 6.6953-16.613 13.156-24.922 19.617zm-144.23-373.15c12.691-29.078 28.383-56.309 46.848-81.461 4.8477 42.461 11.309 75 19.617 111.92-22.156-9.4609-44.312-19.848-66.465-30.461zm809.31 111.23c-18.23 0.23047-41.078 0.92188-63.691 0.92188 16.383-24.23 31.848-48.691 47.309-73.617 7.6133 23.309 13.148 47.77 16.383 72.695zm-88.156 36.23c31.848 1.3828 54.922 0 91.617-0.23047 0.92188 19.152 0.46094 27.691 0.23047 30.691-37.383 1.1523-75 0.92188-112.62-0.46094 7.1562-9.9258 13.848-20.078 20.77-30zm-99.922 129.92c59.77 5.3086 117.92 7.6172 151.38 7.6172 9.9219 0 17.77-7.8477 18-17.77 0-9.9219-7.8477-18-17.77-18-40.383-0.23047-81.922-2.5391-123.46-5.7695 8.3086-10.383 16.152-20.77 24.23-31.152 67.848 3.4609 104.77 2.3086 137.54 1.3828-4.3828 40.383-14.309 79.152-29.309 115.38-67.383-0.92188-132.92-4.1523-195.92-10.152 11.77-13.617 23.539-27.461 35.309-41.539zm-65.539 74.77c66.922 6.9219 137.31 11.078 209.54 12.461-7.6172 14.77-16.152 28.848-25.383 42.461-73.152-0.92188-147.46-6.2305-221.31-15.461 12.23-13.152 24.691-26.309 37.152-39.461zm88.617 154.85c-31.152 23.539-65.539 42.691-102.46 57-2.0781-10.383-14.77-23.309-67.383-129.46 3.9219-3.6914 7.8477-7.3828 11.539-11.078 12.691 1.8477 25.383 3.2305 37.848 4.8477 19.383 42 21.23 49.617 45 91.617 11.539 20.539 42.691 3 31.152-17.539-18.691-33-22.617-42.691-34.848-69.461 11.77 1.1523 23.539 2.3086 35.309 3.2305 14.996 26.074 28.844 47.305 43.844 70.844zm-196.85-46.617c19.152 38.309 39.461 76.848 61.152 114.92-16.617 4.8477-33.461 8.7695-50.77 11.539-16.152-29.078-32.078-60.23-47.539-93 12.465-11.074 24.926-22.152 37.156-33.461zm-65.309 57.691c12.23 25.383 24.461 49.848 37.152 73.152-8.5391 0.69141-17.078 0.92188-25.617 1.1523-15.23-27.23-20.309-38.309-29.539-58.848 6.2344-5.0703 12.004-10.379 18.004-15.457zm-46.613 38.77c5.0781 11.309 9.6914 20.77 16.617 33.922-17.078-1.6172-34.152-3.9219-50.539-7.3828 11.074-9 22.613-17.539 33.922-26.539zm336.46-72.922c-9.2305-14.309-18.23-28.383-28.152-44.77 23.078 1.3828 45.922 2.3086 68.77 3-12.465 15-26.078 28.848-40.617 41.77zm59.77-565.15c-147 248.31-314.08 439.38-510.69 584.31-8.0781 5.7695-9.6914 17.078-3.6914 24.922 5.7695 7.8477 17.078 9.6914 24.922 3.6914 196.38-144.69 363.92-334.85 511.38-579.92 8.5391 14.309 16.152 29.309 23.078 44.77-134.54 225.92-309.46 419.31-518.77 575.08-42-13.848-81.23-33.922-116.54-59.309 218.31-162.92 412.15-377.54 546.46-605.77 5.0781-8.5391 2.0781-19.383-6.4609-24.461-8.5391-5.0781-19.383-2.0781-24.461 6.2305-133.62 226.85-327 440.08-544.62 600.92-10.152-8.7695-20.078-18.23-29.309-27.922 235.62-160.38 430.85-376.62 566.31-627.69 31.156 24.457 59.078 53.074 82.387 85.152zm-160.85-133.62c-34.617 57-71.078 109.62-112.62 165.92-3.9219-19.848-7.3828-39.922-10.383-60.23 31.617-42.922 57.691-75.461 85.848-121.15 12.461 4.6133 24.922 9.6914 37.152 15.461zm-130.15 55.152c-3.9219-30.691-6.9219-61.848-9.2305-93.922 22.848 2.3086 45.23 6.4609 66.691 12.23-19.156 30.691-37.387 54.691-57.461 81.691zm27.461 157.62c50.77-67.617 93.691-128.31 134.31-195.69 6 3.4609 11.77 7.1523 17.539 10.848-41.77 78-89.539 152.77-142.62 223.38-3.2305-12.926-6.2305-25.848-9.2305-38.539zm-72.691-253.39c7.8477 110.77 24.922 219.92 54.461 327.46-6 7.3828-12 14.77-18.23 22.152-39.461-126.23-63.922-235.85-77.77-348.46 21.922-1.6133 32.77-1.3828 41.539-1.1523zm-280.62 100.85c9 73.152 22.848 146.31 41.539 221.77-16.617-6.2305-33-12.691-49.383-19.383-11.078-48-19.383-84.461-25.152-135.23-0.92188-9.2305-9.2305-15.922-18.461-15.691 15.918-18.695 32.996-35.773 51.457-51.465z" fill="#fff"/>
</svg>
