<?xml version="1.0" encoding="UTF-8"?>
<svg width="1200pt" height="1200pt" version="1.1" viewBox="0 0 1200 1200" xmlns="http://www.w3.org/2000/svg" fill="#fff">
 <path d="m1021.9 372.52h-54v-64.547c-0.046875-36.234-29.438-65.625-65.625-65.625h-69.328v-28.406c-0.046875-36.234-29.391-65.578-65.625-65.625h-368.34c-36.188 0.046875-65.578 29.391-65.625 65.625v28.406h-69.281c-36.234 0-65.578 29.391-65.625 65.625v64.594l-20.297-0.046875c-67.266 0.09375-121.78 54.609-121.87 121.87v289.6c0.09375 67.266 54.609 121.78 121.87 121.87h155.21v80.25-0.046875c0.046875 36.234 29.438 65.578 65.625 65.625h368.34c36.234-0.046875 65.578-29.391 65.625-65.625v-80.25l188.95 0.046875c67.266-0.09375 121.78-54.609 121.87-121.87v-289.6c-0.09375-67.266-54.609-121.78-121.87-121.87zm-119.62-73.969v0.046875c5.1562 0 9.3281 4.1719 9.375 9.375v64.594l-78.703-0.046875v-73.922zm-512.68-84.609c0.046876-5.2031 4.2188-9.375 9.375-9.375h368.34c5.2031 0 9.375 4.1719 9.375 9.375v158.63l-387.1-0.046875zm-134.9 94.031c0-5.2031 4.1719-9.375 9.375-9.375h69.328v73.969l-78.703-0.046875zm0 541.64v-38.578c0-5.2031 4.1719-9.375 9.375-9.375h69.328v47.953zm522 136.5v-0.046875c0 5.2031-4.2188 9.375-9.375 9.375h-368.34c-5.1562 0-9.3281-4.1719-9.375-9.375v-184.4h387.1zm56.25-184.45h69.328c5.1562 0 9.3281 4.1719 9.375 9.375v38.578h-78.703zm254.58-17.672c-0.046875 36.188-29.391 65.578-65.625 65.625h-54v-38.578c-0.046875-36.234-29.438-65.625-65.625-65.625h-638.21c-36.234 0-65.578 29.391-65.625 65.625v38.578h-20.297c-36.234-0.046875-65.578-29.438-65.625-65.625v-289.6c0.046874-36.234 29.391-65.578 65.625-65.625h843.74c36.234 0.046875 65.578 29.391 65.625 65.625zm-338.44 93.75c0 15.516-12.609 28.125-28.125 28.125h-269.29c-15.516 0-28.125-12.609-28.125-28.125 0-15.562 12.609-28.125 28.125-28.125h269.29c15.516 0 28.125 12.562 28.125 28.125zm-459.94-360.79c5.25 5.2969 8.2031 12.422 8.25 19.875 0 7.4531-2.9531 14.625-8.25 19.875-5.2031 5.3438-12.422 8.3438-19.875 8.25-3.6562 0-7.3125-0.70312-10.688-2.0625-3.4219-1.4531-6.5625-3.5625-9.1875-6.1875-2.625-2.5781-4.6875-5.625-6.1875-9-1.3594-3.4688-2.0625-7.1719-2.0625-10.875 0.046875-7.4531 3-14.578 8.25-19.875 11.156-10.5 28.594-10.5 39.75 0zm92.25 0c5.25 5.2969 8.2031 12.422 8.25 19.875 0 7.4531-2.9531 14.625-8.25 19.875-5.25 5.2969-12.422 8.2969-19.875 8.25-15.516-0.046874-28.078-12.609-28.125-28.125 0.046875-7.4531 3-14.578 8.25-19.875 1.2188-1.2656 2.625-2.4375 4.125-3.375 1.5469-1.0312 3.1875-1.875 4.875-2.625 1.6875-0.70312 3.4688-1.2656 5.25-1.6875 9.2344-1.8281 18.797 1.0312 25.5 7.6875zm92.25 0c5.25 5.2969 8.2031 12.422 8.25 19.875 0 3.75-0.75 7.4531-2.25 10.875-1.3594 3.375-3.4219 6.4219-6 9-5.25 5.2969-12.422 8.2969-19.875 8.25-15.516 0-28.078-12.609-28.125-28.125 0.046875-7.4531 3-14.578 8.25-19.875 1.2188-1.3125 2.5781-2.4375 4.125-3.375 1.5-1.0781 3.1406-1.9219 4.875-2.625 5.1094-2.25 10.828-2.8594 16.312-1.6875 1.8281 0.375 3.5625 0.9375 5.25 1.6875 1.7344 0.70313 3.375 1.5469 4.875 2.625 1.5469 0.9375 3 2.1094 4.3125 3.375z"/>
</svg>
