<?xml version="1.0" encoding="UTF-8"?>
<svg width="1200pt" height="1200pt" version="1.1" viewBox="0 0 1200 1200" xmlns="http://www.w3.org/2000/svg" fill="#fff">
 <path d="m1075.4 160.22c-16.594-29.438-47.906-47.719-81.75-47.719-12.984 0-25.594 2.625-37.547 7.875-5.4375 2.3906-9.4219 7.2188-10.734 13.031s0.1875 11.859 4.0781 16.406l32.391 37.594c0.375 0.42188 0.79688 0.84375 1.2188 1.2656-0.9375-0.28125-3.3281-1.0312-3.3281-1.0312-5.3906-1.6875-11.578-2.5312-17.953-2.5312-19.312 0-37.312 8.0156-50.719 22.594-1.4062 1.4062-8.2969 8.3438-18.891 18.938-79.828-73.734-182.9-114.14-292.18-114.14-237.79 0-431.26 193.45-431.26 431.26 0 109.59 40.594 212.9 114.7 292.82-65.344 65.484-153.24 153.66-154.22 154.64-10.688 10.547-16.641 24.656-16.734 39.656-0.09375 15.047 5.6719 29.203 16.219 39.891s24.656 16.641 39.656 16.734h0.375c14.906 0 28.922-5.7656 39.609-16.312 1.1719-1.1719 101.86-102.19 161.95-162.37 55.969 35.297 118.83 57 184.4 63.844-0.98437 3.7969-1.5938 7.7812-1.5938 11.906 0 16.641 6.6562 32.203 18.703 43.875 22.219 21.469 56.719 25.781 105.14 25.781 16.359 0 34.453-0.51562 58.266-1.3125 19.828-0.65625 40.359-1.3594 59.25-1.3594 12.562 0 23.203 0.28125 32.531 0.9375 14.719 0.98438 23.672 2.625 28.781 3.9844 6.6094 18.094 24.047 31.031 44.203 31.031 25.828 0 46.875-21.047 46.875-46.875 0-19.688-7.5-37.359-21.75-51.094-27.234-26.344-71.719-31.734-130.13-31.734-20.062 0-42.094 0.65625-62.953 1.3594-5.7188 0.1875-12 0.42188-18.422 0.60938 182.86-49.969 317.63-217.55 317.63-416.02 0-82.172-23.016-161.53-66.703-230.48 5.4375-5.4375 9.9844-9.9844 13.359-13.406 4.125 0.51562 8.2969 0.79688 12.516 0.79688 17.531 0 34.594-4.4062 49.359-12.75 21.797-12.281 37.547-32.344 44.25-56.484 6.75-24.094 3.6562-49.406-8.625-71.203zm-610.69 417.28c-5.25 5.25-10.266 10.688-15.188 16.312-59.812-84.797-91.312-184.18-91.312-288.89 0-25.406 1.9688-51 5.8125-76.219 7.3125-5.4844 14.812-10.734 22.5-15.703-0.46875 8.9531-0.70313 17.906-0.70313 26.766 0 114.98 35.391 223.97 102.42 316.4-8.25 6.8906-16.172 13.969-23.531 21.328zm53.344-44.062c-62.016-85.781-94.734-186.94-94.734-293.63 0-16.219 0.84375-32.719 2.4375-49.125 8.25-4.0781 16.688-7.875 25.219-11.391 1.0312 117.61 40.594 231.98 112.17 324.79-15.141 9.1875-30.375 18.938-45.094 29.344zm77.766-48.422c-69.328-88.172-107.34-197.81-107.34-310.36 0-2.8125 0.046876-5.625 0.09375-8.5781 9.7969-2.9062 19.688-5.4375 29.766-7.5469 9.9844 109.92 54 215.06 125.39 299.48-7.6875 4.4062-15.75 8.9062-23.906 13.453-7.7344 4.3594-15.797 8.9062-24 13.547zm-26.859-333.79c9.2344 6.7031 23.672 19.219 28.312 23.859 13.359 13.359 25.969 27.516 37.734 42.234-12.562 3.3281-24.984 7.125-37.266 11.391-12.094-17.906-25.359-35.203-39.562-51.609-1.125-8.1562-2.0156-16.359-2.7188-24.562 4.5-0.51562 9-0.9375 13.5-1.3125zm100.27 4.8281c6.8906 6.1875 13.688 12.562 20.156 19.031 8.8125 8.8125 17.344 18 25.453 27.422-13.266 1.4062-26.391 3.3281-39.469 5.7188-15-20.156-31.594-39.375-49.359-57.375 14.578 0.98438 29.016 2.7188 43.219 5.2031zm91.641 43.453c-6.1875-7.9219-12.609-15.75-19.219-23.391 17.25 6.6562 33.984 14.484 50.109 23.531-6.0469-0.1875-12.047-0.32812-18.094-0.32812-4.2656 0.046875-8.5312 0.09375-12.797 0.1875zm-84.656 238.87c-3.3281-3.8438-6.5625-7.7344-9.7969-11.719 16.031-8.625 32.438-16.312 49.266-23.109-6.9844 6.9844-13.406 13.406-19.125 19.172-4.7812 4.7812-11.812 10.031-20.344 15.656zm97.5-92.953c-45.375 11.25-89.062 28.359-130.08 51-9.6562-13.875-18.562-28.172-26.719-42.891 61.922-30.469 130.26-47.906 199.64-51.047-14.062 14.109-28.594 28.688-42.844 42.938zm80.484-80.719c-5.1562-0.14062-10.266-0.23438-15.375-0.23438-82.875 0-165.05 19.219-238.87 55.641-6.8438-14.766-12.938-29.859-18.281-45.234 60.844-25.219 125.39-38.016 192.05-38.016 27 0 54.234 2.2031 80.906 6.5156 3.75 3.1875 7.4531 6.4688 11.109 9.7969l-11.531 11.531zm-531.98 0.23438c-0.98438 13.312-1.5 26.672-1.5 39.984 0 116.3 36.188 226.5 104.72 319.55-11.25 15.75-21.516 32.062-30.938 48.188-65.531-86.812-101.39-193.31-101.39-302.63 0-26.906 2.2031-53.953 6.4688-80.531 7.2188-8.4844 14.766-16.688 22.641-24.562zm-50.484 496.45c0.046876-0.75 0.09375-1.5 0.046876-2.2969-0.28125-6.7031-0.375-13.406-0.375-19.922 0-55.219 8.8125-109.03 26.203-160.5 8.25 19.688 17.625 38.906 28.172 57.516-17.062 52.031-26.016 106.31-26.672 161.53-9.8906-11.672-19.031-23.812-27.375-36.328zm-15.516-365.81c-9.5625 6-18.984 12.375-28.172 18.984 7.5-21.609 16.875-42.328 27.891-62.062-0.1875 5.8594-0.32813 11.719-0.32813 17.531 0 8.5781 0.1875 17.062 0.60938 25.547zm-43.969 79.406c15.141-13.266 31.078-25.641 47.672-36.984 1.8281 14.438 4.2656 28.781 7.2656 42.984-21 12.516-41.156 26.484-60.375 41.812 0.84375-16.172 2.6719-32.156 5.4375-47.812zm-5.0156 96.609c21.656-19.5 44.906-37.031 69.422-52.453 0.51562 1.8281 1.0781 3.6562 1.5938 5.4844-0.23438 0.46875-0.46875 0.9375-0.70313 1.4062-7.4062 17.25-13.875 34.781-19.453 52.594-15.891 9.8906-31.359 20.672-46.219 32.25-2.1562-12.891-3.7031-26.016-4.6406-39.281zm36.984 61.875c-3.9375 19.875-6.75 40.031-8.4375 60.422-5.6719-13.781-10.547-27.891-14.625-42.234 7.5-6.2812 15.188-12.375 23.062-18.188zm108.19 45.094c7.0312 10.125 14.484 20.016 22.219 29.672-3.6562 6.75-7.1719 13.359-10.594 19.781-9.6094 18.047-18.469 34.734-26.766 48.188 1.875-33.141 6.9375-65.766 15.141-97.641zm558.42-311.34c14.062 0.1875 28.266 0.98438 42.422 2.3906 4.0781 8.2969 7.875 16.688 11.391 25.219-30.094 0.23437-60 2.9531-89.391 8.1094 12.094-12.188 24.141-24.281 35.578-35.719zm-74.391 170.53c-0.09375 7.7344-0.42188 15.469-0.89063 23.203-7.8281-3.8438-15.562-7.875-23.25-12.094 7.9688-3.8906 16.031-7.5938 24.141-11.109zm37.5-14.297c17.766-6 35.812-10.922 54.141-14.859 1.2188 28.688 0.046876 57.422-3.6094 85.828-17.812-4.8281-35.391-10.641-52.547-17.391 1.5938-17.812 2.25-35.719 2.0156-53.578zm91.453-21.422c8.5781-1.1719 17.203-2.1562 25.875-2.8594 1.6406 14.719 2.4844 29.578 2.4844 44.578 0 21.656-1.7812 42.891-5.1562 63.609-9.1875-1.2188-18.281-2.7188-27.375-4.4531 4.5-33.375 5.9062-67.219 4.1719-100.88zm-140.34-48.797c46.547-13.922 94.969-20.953 144.05-20.953 2.8125 0 5.7188 0.046876 8.6719 0.09375 2.9062 9.7969 5.3906 19.734 7.5 29.766-74.203 6.6094-144.79 28.125-210.14 63.984-3.5625-2.3906-7.0781-4.8281-10.547-7.3125 5.4844-8.5781 10.594-15.562 15.188-20.203 12.188-12.234 27.938-28.031 45.281-45.375zm-91.969 121.4c4.2656-7.9688 8.4844-15.797 12.562-23.297 69.984 49.219 150.56 81 235.13 92.812-2.9062 11.016-6.2812 21.797-10.078 32.391-89.297-3.5156-175.26-30.516-250.26-78.469 4.3594-8.0625 8.5781-15.891 12.656-23.438zm-30.984 56.156c76.266 48.375 163.03 76.594 253.26 82.453-4.6875 9.75-9.75 19.312-15.188 28.594-4.9219 0.14062-9.7969 0.23438-14.484 0.23438-88.547 0-174.94-23.156-251.02-67.125 9.7031-14.484 18.844-29.391 27.422-44.156zm-49.594 74.672c79.594 46.781 169.87 72.281 262.69 74.062-6.8906 9.1875-14.203 18.094-21.891 26.672-10.969 0.70312-21.984 1.0781-32.766 1.0781-85.594 0-169.22-21.656-243.42-62.859 2.4844-2.3438 4.9688-4.6875 7.4062-7.125 9.8438-9.8906 19.125-20.625 27.984-31.828zm-66.094 64.547c80.859 47.719 172.82 73.453 267.24 74.672-11.531 9.75-23.625 18.797-36.188 27.188-7.4531 0.32812-14.859 0.51562-22.031 0.51562-91.125 0-179.34-24.328-256.87-70.547 16.172-9.6562 32.391-20.203 47.859-31.828zm-50.016 162.37c1.3594-10.219 3.0938-20.438 5.0625-30.562 11.766-12.422 23.016-25.406 33.562-38.859 10.359 4.6406 20.859 8.9531 31.5 12.938-3.0469 3.2344-6.1406 6.4219-9.2812 9.5156-13.781 13.828-38.953 34.641-59.438 47.156-0.42188-0.046875-0.9375-0.14062-1.4062-0.1875zm87.375-20.438c7.4531-7.4531 14.766-15.234 21.844-23.156 10.5 3.0469 21.141 5.7188 31.828 8.1094-15.047 14.062-30.984 27.281-47.625 39.422-9.8438 0.79688-19.781 1.1719-29.812 1.1719-1.6406 0-3.2344-0.046875-4.875-0.046875 11.062-8.9531 21.188-18.047 28.641-25.5zm92.156 0c2.2969-2.2969 4.5469-4.5938 6.7969-6.9375 8.9531 1.2188 17.906 2.1562 26.906 2.9531-14.812 6.0938-30.094 11.344-45.75 15.656 4.0781-3.8906 8.1094-7.7344 12.047-11.672zm-214.74-89.25c6.2344 4.0781 12.562 8.0156 18.984 11.812-9.4219 29.344-16.266 59.484-20.531 90.047-10.969-2.8594-21.75-6.2344-32.438-10.031 1.0312-26.578 4.2188-53.062 9.375-78.938 8.0156-4.125 16.219-8.3906 24.609-12.891zm-70.734 76.547c-9.7031-4.6406-19.266-9.7031-28.594-15.141-0.046874-2.0156-0.09375-4.0312-0.14062-6.0469 8.1562-6.4688 19.594-13.312 33.094-20.672-1.9688 13.875-3.4219 27.844-4.3594 41.859zm302.95 97.406c20.484-0.70312 42.094-1.3125 61.594-1.3125 58.359 0 88.547 6.1406 104.06 21.188 6.8438 6.6094 10.266 14.719 10.266 24.141 0 5.1562-4.2188 9.375-9.375 9.375-4.875 0-9-3.7969-9.375-8.6719-0.42187-5.8594-3.5625-11.203-8.5312-14.438-9.5625-6.1875-27.281-10.172-52.547-11.859-10.125-0.65625-21.609-1.0312-35.016-1.0312-19.547 0-40.406 0.70312-60.562 1.4062-23.438 0.79688-41.156 1.2656-57 1.2656-45 0-67.875-4.4062-79.078-15.234-4.6875-4.5469-7.2656-10.547-7.2656-16.922 0-5.1562 4.2188-9.375 9.375-9.375 4.5938 0 7.7344 3.1406 8.8594 6.2812 1.9219 5.5312 6.3281 9.7969 11.906 11.625 10.406 3.375 27.75 4.875 56.25 4.875 19.078-0.046875 39.75-0.75 56.438-1.3125zm314.53-775.26c-4.0312 14.484-13.453 26.531-26.531 33.891-9.0469 5.1094-20.062 7.9219-30.938 7.9219-4.9688 0-9.8438-0.5625-14.484-1.6875-6.375-1.5469-13.078 0.32812-17.719 4.9688-1.4531 1.4531-145.64 146.21-204.98 205.55-16.688 16.688-32.812 46.781-53.25 84.891-26.672 49.734-59.859 111.66-102.05 153.84-41.812 41.812-100.03 71.719-146.86 95.766-34.453 17.672-62.016 31.875-79.125 47.672-1.5 1.0781-2.8125 2.3438-3.9375 3.7969-51.141 51.141-184.87 185.39-186.14 186.61-3.5156 3.4688-8.2031 5.3906-13.172 5.3906h-0.14063c-5.0156-0.046875-9.7031-2.0156-13.219-5.5781-3.5156-3.5625-5.4375-8.2969-5.3906-13.312 0.046874-5.0156 2.0156-9.7031 5.6719-13.312 1.2656-1.2656 127.64-128.11 189.94-190.4 17.062-17.062 33-47.062 51.516-81.797 24.094-45.234 54.094-101.58 94.078-141.56 39.891-39.891 99.234-73.125 146.9-99.797 36.469-20.391 67.969-38.062 84.938-54.984 31.594-31.594 84.656-84.797 130.18-130.4 46.266-46.406 85.078-85.359 85.266-85.594 8.0156-8.8125 17.109-10.641 23.297-10.641 3.75 0 5.6719 0.51562 7.4531 1.0781 4.6406 1.4062 10.406 3.2344 17.109 3.2344 5.9531 0 11.531-1.4531 16.594-4.3125 8.7188-4.9219 15-12.938 17.719-22.594 2.6719-9.6562 0-22.219-3.4688-28.5-3.375-6.0469-17.766-21.234-17.766-21.234 18.047 1.8281 34.312 12.375 43.312 28.359 7.3594 13.078 9.2344 28.266 5.2031 42.75z"/>
 <path d="m575.76 605.48c-7.3125-7.3125-19.172-7.3125-26.531 0-7.3125 7.3125-7.3125 19.172 0 26.531l18.75 18.75c3.6562 3.6562 8.4375 5.4844 13.266 5.4844 4.7812 0 9.6094-1.8281 13.266-5.4844 7.3125-7.3125 7.3125-19.172 0-26.531z"/>
 <path d="m519.52 624.24c-7.3125-7.3125-19.172-7.3125-26.531 0-7.3125 7.3125-7.3125 19.172 0 26.531l56.25 56.25c3.6562 3.6562 8.4375 5.4844 13.266 5.4844 4.7812 0 9.6094-1.8281 13.266-5.4844 7.3125-7.3125 7.3125-19.172 0-26.531z"/>
 <path d="m500.76 680.48c-7.3125-7.3125-19.172-7.3125-26.531 0-7.3125 7.3125-7.3125 19.172 0 26.531l18.75 18.75c3.6562 3.6562 8.4375 5.4844 13.266 5.4844 4.7812 0 9.6094-1.8281 13.266-5.4844 7.3125-7.3125 7.3125-19.172 0-26.531z"/>
</svg>
